<svg width="65" height="59" viewBox="0 0 65 59" fill="none" xmlns="http://www.w3.org/2000/svg">
<path opacity="0.5" d="M64.067 0.890237L48.388 53.6916C48.3082 53.9313 47.9893 54.0032 47.8033 53.8354L37.3064 44.3681L45.1724 17.9075C45.2522 17.6678 45.013 17.4521 44.7472 17.524L15.4089 24.6185L4.96507 15.1991C4.77905 15.0313 4.85878 14.7437 5.12452 14.6718L63.6418 0.50675C63.9075 0.458814 64.1467 0.674525 64.067 0.890237Z" fill="#00B37E"/>
<path opacity="0.5" d="M37.3058 44.3676L33.2665 58.0293C33.1868 58.269 32.8679 58.3409 32.6818 58.1732L0.101381 28.8124C-0.0846408 28.6446 -0.00491742 28.357 0.260829 28.2851L15.4084 24.618L37.3058 44.3676Z" fill="#00B37E"/>
<path d="M45.1711 17.907L37.305 44.3676L15.4076 24.618L44.7459 17.5235C45.0117 17.4516 45.2508 17.6673 45.1711 17.907Z" fill="#00B37E"/>
</svg>
